<svg width="16" height="16" viewBox="0 0 16 16" fill="none" xmlns="http://www.w3.org/2000/svg">
<g id="ic / sex">
<path id="Vector (Stroke)" fill-rule="evenodd" clip-rule="evenodd" d="M8 2.66536C6.52724 2.66536 5.33333 3.85927 5.33333 5.33203C5.33333 6.80479 6.52724 7.9987 8 7.9987C9.47276 7.9987 10.6667 6.80479 10.6667 5.33203C10.6667 3.85927 9.47276 2.66536 8 2.66536ZM4 5.33203C4 3.12289 5.79086 1.33203 8 1.33203C10.2091 1.33203 12 3.12289 12 5.33203C12 7.54117 10.2091 9.33203 8 9.33203C5.79086 9.33203 4 7.54117 4 5.33203Z" fill="#8D939A"/>
<path id="Line 1 (Stroke)" fill-rule="evenodd" clip-rule="evenodd" d="M7.33203 14.668L7.33203 8.66797H8.66536L8.66536 14.668H7.33203Z" fill="#8D939A"/>
<path id="Line 2 (Stroke)" fill-rule="evenodd" clip-rule="evenodd" d="M5.33203 10.668H10.6654V12.0013H5.33203V10.668Z" fill="#8D939A"/>
</g>
</svg>
