<svg width="36" height="36" viewBox="0 0 36 36" fill="none" xmlns="http://www.w3.org/2000/svg">
<rect width="36" height="36" rx="2" fill="white"/>
<path fill-rule="evenodd" clip-rule="evenodd" d="M18 9C13.0294 9 9 13.0294 9 18C9 22.9706 13.0294 27 18 27C22.9706 27 27 22.9706 27 18C27 13.0294 22.9706 9 18 9ZM7 18C7 11.9249 11.9249 7 18 7C24.0751 7 29 11.9249 29 18C29 24.0751 24.0751 29 18 29C11.9249 29 7 24.0751 7 18Z" fill="#8D939A"/>
<path fill-rule="evenodd" clip-rule="evenodd" d="M23 18C23 17.4477 23.4477 17 24 17H28C28.5523 17 29 17.4477 29 18C29 18.5523 28.5523 19 28 19H24C23.4477 19 23 18.5523 23 18Z" fill="#8D939A"/>
<path fill-rule="evenodd" clip-rule="evenodd" d="M7 18C7 17.4477 7.44772 17 8 17H12C12.5523 17 13 17.4477 13 18C13 18.5523 12.5523 19 12 19H8C7.44772 19 7 18.5523 7 18Z" fill="#8D939A"/>
<path fill-rule="evenodd" clip-rule="evenodd" d="M18 7C18.5523 7 19 7.44772 19 8V12C19 12.5523 18.5523 13 18 13C17.4477 13 17 12.5523 17 12V8C17 7.44772 17.4477 7 18 7Z" fill="#8D939A"/>
<path fill-rule="evenodd" clip-rule="evenodd" d="M18 23C18.5523 23 19 23.4477 19 24V28C19 28.5523 18.5523 29 18 29C17.4477 29 17 28.5523 17 28V24C17 23.4477 17.4477 23 18 23Z" fill="#8D939A"/>
<path d="M19 18C19 18.5523 18.5523 19 18 19C17.4477 19 17 18.5523 17 18C17 17.4477 17.4477 17 18 17C18.5523 17 19 17.4477 19 18Z" fill="#8D939A"/>
</svg>
