<svg width="24" height="24" viewBox="0 0 24 24" fill="none" xmlns="http://www.w3.org/2000/svg">
<path fill-rule="evenodd" clip-rule="evenodd" d="M11.3861 1.21065C11.7472 0.929784 12.2528 0.929784 12.6139 1.21065L21.6139 8.21065C21.8575 8.4001 22 8.69141 22 9V22C22 22.5523 21.5523 23 21 23H3C2.44772 23 2 22.5523 2 22V9C2 8.69141 2.14247 8.4001 2.38606 8.21065L11.3861 1.21065ZM4 9.48908V21H20V9.48908L12 3.26686L4 9.48908Z" fill="#8D939A"/>
<path fill-rule="evenodd" clip-rule="evenodd" d="M8 14C8 13.4477 8.44772 13 9 13H15C15.5523 13 16 13.4477 16 14V23H14V15H10V23H8V14Z" fill="#8D939A"/>
</svg>
