<svg width="18" height="16" viewBox="0 0 18 16" fill="none" xmlns="http://www.w3.org/2000/svg">
<g id="Group 136">
<path id="Vector" d="M16.5314 14.5043C16.8314 14.187 17 13.7565 17 13.3077V4L13 9.5L9 4L5 9.5L1 4V13.3077C1 13.7565 1.16857 14.187 1.46863 14.5043C1.76869 14.8217 2.17565 15 2.6 15H15.4C15.8243 15 16.2313 14.8217 16.5314 14.5043Z" fill="#7654FF" stroke="#7654FF" stroke-width="2" stroke-linecap="round" stroke-linejoin="round"/>
<path id="Ellipse 22" d="M10 1C10 1.55228 9.55228 2 9 2C8.44772 2 8 1.55228 8 1C8 0.447715 8.44772 0 9 0C9.55228 0 10 0.447715 10 1Z" fill="#7654FF"/>
<path id="Ellipse 23" d="M18 1C18 1.55228 17.5523 2 17 2C16.4477 2 16 1.55228 16 1C16 0.447715 16.4477 0 17 0C17.5523 0 18 0.447715 18 1Z" fill="#7654FF"/>
<path id="Ellipse 24" d="M2 1C2 1.55228 1.55228 2 1 2C0.447715 2 0 1.55228 0 1C0 0.447715 0.447715 0 1 0C1.55228 0 2 0.447715 2 1Z" fill="#7654FF"/>
</g>
</svg>
