<svg width="16" height="16" viewBox="0 0 16 16" fill="none" xmlns="http://www.w3.org/2000/svg">
<g id="ic / sex">
<path id="Vector (Stroke)" fill-rule="evenodd" clip-rule="evenodd" d="M7.93249 7.93139C6.8911 6.88999 5.20265 6.88999 4.16126 7.93139C3.11986 8.97279 3.11986 10.6612 4.16126 11.7026C5.20265 12.744 6.8911 12.744 7.93249 11.7026C8.97389 10.6612 8.97389 8.97279 7.93249 7.93139ZM3.21845 6.98858C4.78054 5.42649 7.31321 5.42649 8.8753 6.98858C10.4374 8.55068 10.4374 11.0833 8.8753 12.6454C7.31321 14.2075 4.78054 14.2075 3.21845 12.6454C1.65635 11.0833 1.65635 8.55068 3.21845 6.98858Z" fill="#8D939A"/>
<path id="Vector (Stroke)_2" fill-rule="evenodd" clip-rule="evenodd" d="M12.7604 2.66541C13.1286 2.66541 13.427 2.96389 13.427 3.33208L13.427 7.33208L12.0937 7.33208L12.0937 4.94158L8.76039 8.27489L7.81758 7.33208L11.1509 3.99875L8.76037 3.99875L8.76037 2.66542L12.7604 2.66541Z" fill="#8D939A"/>
</g>
</svg>
