<svg width="100" height="61" viewBox="0 0 100 61" fill="none" xmlns="http://www.w3.org/2000/svg">
<path fill-rule="evenodd" clip-rule="evenodd" d="M45.5039 9.13176C45.7942 8.96587 46.1482 8.95605 46.4472 9.10557L53.9685 12.8662L60.5039 9.13176C60.8134 8.9549 61.1936 8.95617 61.5019 9.13509C61.8102 9.31401 62 9.64353 62 10V26C62 26.3589 61.8077 26.6902 61.4961 26.8682L54.4961 30.8682C54.2058 31.0341 53.8518 31.044 53.5528 30.8944L46.0315 27.1338L39.4961 30.8682C39.1866 31.0451 38.8064 31.0438 38.4981 30.8649C38.1898 30.686 38 30.3565 38 30V14C38 13.6411 38.1923 13.3098 38.5039 13.1318L45.5039 9.13176ZM46.0315 11.1338L40 14.5803V28.2768L45.5039 25.1318C45.7942 24.9659 46.1482 24.956 46.4472 25.1056L53.9685 28.8662L60 25.4197V11.7232L54.4961 14.8682C54.2058 15.0341 53.8518 15.044 53.5528 14.8944L46.0315 11.1338Z" fill="#7654FF"/>
<path fill-rule="evenodd" clip-rule="evenodd" d="M46 9C46.5523 9 47 9.44772 47 10V26C47 26.5523 46.5523 27 46 27C45.4477 27 45 26.5523 45 26V10C45 9.44772 45.4477 9 46 9Z" fill="#7654FF"/>
<path fill-rule="evenodd" clip-rule="evenodd" d="M54 13C54.5523 13 55 13.4477 55 14V30C55 30.5523 54.5523 31 54 31C53.4477 31 53 30.5523 53 30V14C53 13.4477 53.4477 13 54 13Z" fill="#7654FF"/>
<path d="M19.8643 40.216H20.7643V41.56C20.7643 42.544 21.3163 43.864 22.3843 44.608C23.4403 43.888 23.9803 42.604 23.9803 41.56V40.216H24.8803V41.56C24.8803 42.844 25.6483 44.2 27.0163 44.776L26.5123 45.448C25.5043 44.992 24.7963 44.128 24.4363 43.108C24.1003 44.128 23.4283 45.076 22.3723 45.568C21.3163 45.076 20.6323 44.092 20.2963 43.06C19.9363 44.068 19.2283 44.968 18.2323 45.448L17.7403 44.776C19.0723 44.152 19.8643 42.724 19.8643 41.56V40.216ZM17.6323 47.692H27.1483V48.46H17.6323V47.692ZM28.4566 40.54H32.2006V44.152H29.3446V46.528C30.5566 46.528 31.7086 46.48 33.0886 46.228L33.1606 46.972C31.6726 47.236 30.4846 47.272 29.1646 47.272H28.4806V43.432H31.3366V41.296H28.4566V40.54ZM36.1486 39.376H37.0126V49.876H36.1486V39.376ZM32.7046 43.168H34.0366V39.64H34.8766V49.312H34.0366V43.912H32.7046V43.168ZM46.3009 39.376H47.2009V49.876H46.3009V39.376ZM44.1049 40.504C44.1049 43.528 42.7129 46.192 39.2209 47.896L38.7409 47.176C41.5729 45.82 43.0009 43.768 43.1929 41.248H39.2089V40.504H44.1049ZM49.0972 44.956H53.3812V43.888H50.3572V39.688H57.4012V40.408H51.2572V41.404H57.1252V42.1H51.2572V43.18H57.4612V43.888H54.2812V44.956H58.5772V45.688H49.0972V44.956ZM53.8372 46.516C56.1172 46.516 57.4252 47.08 57.4252 48.184C57.4252 49.276 56.1172 49.852 53.8372 49.852C51.5452 49.852 50.2492 49.276 50.2492 48.184C50.2492 47.08 51.5452 46.516 53.8372 46.516ZM53.8372 47.188C52.1212 47.188 51.1492 47.548 51.1492 48.184C51.1492 48.832 52.1212 49.168 53.8372 49.168C55.5412 49.168 56.5252 48.832 56.5252 48.184C56.5252 47.548 55.5412 47.188 53.8372 47.188ZM62.6511 40.612H65.0151V39.328H65.9031V40.612H68.2551V41.356H65.9031V41.56C65.9031 42.844 66.9591 43.996 68.4831 44.44L68.0631 45.148C66.8631 44.776 65.9271 43.984 65.4711 42.976C65.0271 44.092 64.0431 44.944 62.8071 45.352L62.3751 44.644C63.9111 44.176 65.0151 42.964 65.0151 41.56V41.356H62.6511V40.612ZM69.5871 39.376H70.4871V41.992H72.0591V42.736H70.4871V45.484H69.5871V39.376ZM63.8271 46.06H70.6791V46.804H67.7271C67.8711 47.908 69.4191 48.868 71.0751 49.156L70.7271 49.84C69.2271 49.576 67.8471 48.808 67.2471 47.764C66.6591 48.82 65.2671 49.564 63.7551 49.84L63.4071 49.144C65.0871 48.868 66.6231 47.932 66.7671 46.804H63.8271V46.06ZM80.5314 39.376H81.4314V49.876H80.5314V39.376ZM78.3354 40.504C78.3354 43.528 76.9434 46.192 73.4514 47.896L72.9714 47.176C75.8034 45.82 77.2314 43.768 77.4234 41.248H73.4394V40.504H78.3354Z" fill="#7654FF"/>
</svg>
