<svg width="12" height="13" viewBox="0 0 12 13" fill="none" xmlns="http://www.w3.org/2000/svg">
<g id="ic / map-pin" clip-path="url(#clip0_4753_863)">
<path id="Vector (Stroke)" fill-rule="evenodd" clip-rule="evenodd" d="M6 1.5C4.93913 1.5 3.92172 1.92143 3.17157 2.67157C2.42143 3.42172 2 4.43913 2 5.5C2 7.04903 3.00787 8.55212 4.11298 9.71863C4.65531 10.2911 5.19933 10.7597 5.60834 11.0854C5.76056 11.2066 5.89351 11.3076 6 11.3863C6.10649 11.3076 6.23944 11.2066 6.39166 11.0854C6.80067 10.7597 7.34469 10.2911 7.88702 9.71863C8.99213 8.55212 10 7.04903 10 5.5C10 4.43913 9.57857 3.42172 8.82843 2.67157C8.07828 1.92143 7.06087 1.5 6 1.5ZM6 12C5.72265 12.416 5.72252 12.4159 5.72238 12.4158L5.72095 12.4149L5.71762 12.4127L5.70616 12.4049C5.69642 12.3983 5.68254 12.3888 5.66478 12.3765C5.62926 12.3519 5.57823 12.3161 5.5139 12.2696C5.38527 12.1767 5.20318 12.0411 4.98541 11.8677C4.55067 11.5215 3.96969 11.0214 3.38702 10.4064C2.24213 9.19788 1 7.45097 1 5.5C1 4.17392 1.52678 2.90215 2.46447 1.96447C3.40215 1.02678 4.67392 0.5 6 0.5C7.32608 0.5 8.59785 1.02678 9.53553 1.96447C10.4732 2.90215 11 4.17392 11 5.5C11 7.45097 9.75787 9.19788 8.61298 10.4064C8.03031 11.0214 7.44933 11.5215 7.01459 11.8677C6.79682 12.0411 6.61473 12.1767 6.4861 12.2696C6.42177 12.3161 6.37074 12.3519 6.33522 12.3765C6.31746 12.3888 6.30358 12.3983 6.29384 12.4049L6.28238 12.4127L6.27905 12.4149L6.27799 12.4156C6.27785 12.4157 6.27735 12.416 6 12ZM6 12L6.27735 12.416C6.1094 12.528 5.89033 12.5278 5.72238 12.4158L6 12Z" fill="#8D939A"/>
<path id="Vector (Stroke)_2" fill-rule="evenodd" clip-rule="evenodd" d="M6 4.5C5.44772 4.5 5 4.94772 5 5.5C5 6.05228 5.44772 6.5 6 6.5C6.55228 6.5 7 6.05228 7 5.5C7 4.94772 6.55228 4.5 6 4.5ZM4 5.5C4 4.39543 4.89543 3.5 6 3.5C7.10457 3.5 8 4.39543 8 5.5C8 6.60457 7.10457 7.5 6 7.5C4.89543 7.5 4 6.60457 4 5.5Z" fill="#8D939A"/>
</g>
<defs>
<clipPath id="clip0_4753_863">
<rect width="12" height="12" fill="white" transform="translate(0 0.5)"/>
</clipPath>
</defs>
</svg>
