<svg width="100" height="61" viewBox="0 0 100 61" fill="none" xmlns="http://www.w3.org/2000/svg">
<path d="M59.6384 10.4792L53.938 8L47.4892 18.1784L45.802 17.4446C43.7211 16.5396 41.2896 17.3224 40.1183 19.2743L39.0953 20.979C39.0072 21.1259 39.0679 21.3165 39.2244 21.3846L49.8116 25.9892L59.6384 10.4792Z" fill="#7654FF" stroke="#7654FF" stroke-width="2" stroke-linejoin="round"/>
<path d="M42.9982 23.5C42.4701 23.8599 41.7709 24.7053 41.423 25.2851L40.4 26.9899C40.3119 27.1367 40.3726 27.3274 40.5291 27.3954L51.1163 32L60.9431 16.49L57.4982 15" stroke="#7654FF" stroke-width="2" stroke-linejoin="round"/>
<path d="M25.1473 39.712H32.8273V40.408H31.2193V42.484H32.7913V43.18H25.1833V42.484H26.7553V40.408H25.1473V39.712ZM24.2593 44.092H33.7393V44.812H24.2593V44.092ZM25.4113 45.772H32.5153V48.052H26.3233V49.06H32.8393V49.756H25.4473V47.392H31.6393V46.456H25.4113V45.772ZM27.6673 42.484H30.3313V40.408H27.6673V42.484ZM34.7476 47.812H39.0436V45.796H35.9476V42.58H42.1876V40.888H35.9236V40.156H43.0756V43.3H36.8356V45.064H43.3156V45.796H39.9316V47.812H44.2636V48.556H34.7476V47.812ZM52.8919 39.376H53.7919V45.724H52.8919V39.376ZM50.7079 40.156C50.7079 42.844 48.6919 44.812 45.7159 45.688L45.3439 44.992C47.8399 44.248 49.5559 42.784 49.7479 40.9H45.9079V40.156H50.7079ZM50.3359 45.808C52.5079 45.808 53.8519 46.552 53.8519 47.824C53.8519 49.108 52.5079 49.852 50.3359 49.852C48.1759 49.852 46.8199 49.108 46.8199 47.824C46.8199 46.552 48.1759 45.808 50.3359 45.808ZM50.3359 46.528C48.7159 46.528 47.7199 47.008 47.7199 47.824C47.7199 48.628 48.7159 49.132 50.3359 49.132C51.9559 49.132 52.9519 48.628 52.9519 47.824C52.9519 47.008 51.9559 46.528 50.3359 46.528ZM62.8881 39.376H63.7881V43.72H65.5281V44.476H63.7881V49.876H62.8881V39.376ZM55.6641 41.068H58.3521V39.496H59.2641V41.068H61.8801V41.812H55.6641V41.068ZM58.8201 42.712C60.2961 42.712 61.3641 43.696 61.3641 45.112C61.3641 46.528 60.2961 47.512 58.8201 47.512C57.3561 47.512 56.2761 46.528 56.2761 45.112C56.2761 43.696 57.3561 42.712 58.8201 42.712ZM58.8201 43.456C57.8361 43.456 57.1401 44.152 57.1401 45.112C57.1401 46.072 57.8361 46.756 58.8201 46.756C59.7921 46.756 60.5001 46.072 60.5001 45.112C60.5001 44.152 59.7921 43.456 58.8201 43.456ZM73.9044 39.376H74.8044V49.876H73.9044V39.376ZM71.7084 40.504C71.7084 43.528 70.3164 46.192 66.8244 47.896L66.3444 47.176C69.1764 45.82 70.6044 43.768 70.7964 41.248H66.8124V40.504H71.7084Z" fill="#7654FF"/>
</svg>
