<svg width="100" height="61" viewBox="0 0 100 61" fill="none" xmlns="http://www.w3.org/2000/svg">
<path fill-rule="evenodd" clip-rule="evenodd" d="M42.4645 23.4645C43.4021 22.5268 44.6739 22 46 22H54C55.3261 22 56.5979 22.5268 57.5355 23.4645C58.4732 24.4021 59 25.6739 59 27V30H57V27C57 26.2044 56.6839 25.4413 56.1213 24.8787C55.5587 24.3161 54.7956 24 54 24H46C45.2044 24 44.4413 24.3161 43.8787 24.8787C43.3161 25.4413 43 26.2044 43 27V30H41V27C41 25.6739 41.5268 24.4021 42.4645 23.4645Z" fill="#8D939A"/>
<path fill-rule="evenodd" clip-rule="evenodd" d="M50 12C48.3431 12 47 13.3431 47 15C47 16.6569 48.3431 18 50 18C51.6569 18 53 16.6569 53 15C53 13.3431 51.6569 12 50 12ZM45 15C45 12.2386 47.2386 10 50 10C52.7614 10 55 12.2386 55 15C55 17.7614 52.7614 20 50 20C47.2386 20 45 17.7614 45 15Z" fill="#8D939A"/>
<path d="M24.7033 40.432H29.4913V47.2H24.7033V40.432ZM28.6153 41.164H25.5793V46.468H28.6153V41.164ZM31.4233 39.376H32.3233V43.6H34.0633V44.356H32.3233V49.876H31.4233V39.376ZM42.4156 39.364H43.3156V49.888H42.4156V39.364ZM37.7956 40.192C39.3436 40.192 40.4476 41.608 40.4476 43.84C40.4476 46.072 39.3436 47.5 37.7956 47.5C36.2356 47.5 35.1316 46.072 35.1316 43.84C35.1316 41.608 36.2356 40.192 37.7956 40.192ZM37.7956 40.996C36.7396 40.996 36.0076 42.124 36.0076 43.84C36.0076 45.556 36.7396 46.696 37.7956 46.696C38.8396 46.696 39.5836 45.556 39.5836 43.84C39.5836 42.124 38.8396 40.996 37.7956 40.996ZM53.3119 39.376H54.1759V49.876H53.3119V39.376ZM49.8079 43.396H51.2839V39.64H52.1359V49.312H51.2839V44.188H49.8079V43.396ZM45.3319 40.72H50.1319V41.464H49.2319V46.372C49.6279 46.336 50.0119 46.3 50.3599 46.252L50.4319 46.924C48.7759 47.224 46.5919 47.272 45.2239 47.272L45.1159 46.504L46.2199 46.492V41.464H45.3319V40.72ZM47.0479 46.48L48.4039 46.42V41.464H47.0479V46.48ZM63.3921 39.364H64.2921V49.888H63.3921V39.364ZM58.7721 40.192C60.3201 40.192 61.4241 41.608 61.4241 43.84C61.4241 46.072 60.3201 47.5 58.7721 47.5C57.2121 47.5 56.1081 46.072 56.1081 43.84C56.1081 41.608 57.2121 40.192 58.7721 40.192ZM58.7721 40.996C57.7161 40.996 56.9841 42.124 56.9841 43.84C56.9841 45.556 57.7161 46.696 58.7721 46.696C59.8161 46.696 60.5601 45.556 60.5601 43.84C60.5601 42.124 59.8161 40.996 58.7721 40.996ZM66.5364 40.456H72.4044V41.212H69.9084V42.628C69.9084 44.416 71.2284 46.216 72.7404 46.876L72.2244 47.596C71.0244 47.032 69.9564 45.808 69.4644 44.356C68.9844 45.904 67.9284 47.248 66.7284 47.848L66.2124 47.14C67.6884 46.42 69.0084 44.44 69.0084 42.628V41.212H66.5364V40.456ZM73.8684 39.376H74.7684V49.876H73.8684V39.376Z" fill="#8D939A"/>
</svg>
