<svg width="16" height="16" viewBox="0 0 16 16" fill="none" xmlns="http://www.w3.org/2000/svg">
<g clip-path="url(#clip0_4679_8560)">
<path fill-rule="evenodd" clip-rule="evenodd" d="M15.3307 2C15.6989 2 15.9974 2.29848 15.9974 2.66667V6.66667C15.9974 7.03486 15.6989 7.33333 15.3307 7.33333H11.3307C10.9625 7.33333 10.6641 7.03486 10.6641 6.66667C10.6641 6.29848 10.9625 6 11.3307 6H14.6641V2.66667C14.6641 2.29848 14.9625 2 15.3307 2Z" fill="#8D939A"/>
<path fill-rule="evenodd" clip-rule="evenodd" d="M8.7516 2.72213C7.6067 2.55974 6.44002 2.77385 5.42739 3.33221C4.41476 3.89056 3.61103 4.76291 3.13732 5.81779C2.66361 6.87268 2.54559 8.05295 2.80103 9.18075C3.05647 10.3085 3.67154 11.3228 4.55356 12.0706C5.43557 12.8184 6.53674 13.2593 7.69113 13.3268C8.84553 13.3944 9.9906 13.0849 10.9538 12.445C11.917 11.8051 12.6461 10.8696 13.0313 9.77923C13.154 9.43207 13.5348 9.25007 13.882 9.37272C14.2292 9.49537 14.4112 9.87623 14.2885 10.2234C13.807 11.5863 12.8956 12.7558 11.6916 13.5556C10.4876 14.3555 9.05626 14.7423 7.61327 14.6579C6.17028 14.5735 4.79381 14.0224 3.69129 13.0876C2.58877 12.1528 1.81994 10.885 1.50063 9.47528C1.18133 8.06553 1.32886 6.5902 1.921 5.27159C2.51314 3.95298 3.5178 2.86255 4.78359 2.1646C6.04938 1.46666 7.50772 1.19902 8.93885 1.40201C10.3666 1.60452 11.69 2.26448 12.7108 3.28274L15.7903 6.18264C16.0583 6.43505 16.071 6.85697 15.8186 7.12502C15.5662 7.39307 15.1443 7.40574 14.8762 7.15332L11.7895 4.24666C11.7846 4.24203 11.7798 4.23734 11.775 4.23257C10.9576 3.41464 9.89651 2.88453 8.7516 2.72213Z" fill="#8D939A"/>
</g>
<defs>
<clipPath id="clip0_4679_8560">
<rect width="16" height="16" fill="white"/>
</clipPath>
</defs>
</svg>
