<svg width="24" height="24" viewBox="0 0 24 24" fill="none" xmlns="http://www.w3.org/2000/svg">
<path fill-rule="evenodd" clip-rule="evenodd" d="M11 4C7.13401 4 4 7.13401 4 11C4 14.866 7.13401 18 11 18C14.866 18 18 14.866 18 11C18 7.13401 14.866 4 11 4ZM2 11C2 6.02944 6.02944 2 11 2C15.9706 2 20 6.02944 20 11C20 15.9706 15.9706 20 11 20C6.02944 20 2 15.9706 2 11Z" fill="#8D939A"/>
<path fill-rule="evenodd" clip-rule="evenodd" d="M16.6486 15.2344L22.4128 20.9986L20.9986 22.4128L15.2344 16.6486L16.6486 15.2344Z" fill="#8D939A"/>
</svg>
