<svg width="24" height="24" viewBox="0 0 24 24" fill="none" xmlns="http://www.w3.org/2000/svg">
<g id="ic / share">
<path id="Vector (Stroke)" fill-rule="evenodd" clip-rule="evenodd" d="M18 3C16.8954 3 16 3.89543 16 5C16 6.10457 16.8954 7 18 7C19.1046 7 20 6.10457 20 5C20 3.89543 19.1046 3 18 3ZM14 5C14 2.79086 15.7909 1 18 1C20.2091 1 22 2.79086 22 5C22 7.20914 20.2091 9 18 9C15.7909 9 14 7.20914 14 5Z" fill="#8D939A"/>
<path id="Vector (Stroke)_2" fill-rule="evenodd" clip-rule="evenodd" d="M6 10C4.89543 10 4 10.8954 4 12C4 13.1046 4.89543 14 6 14C7.10457 14 8 13.1046 8 12C8 10.8954 7.10457 10 6 10ZM2 12C2 9.79086 3.79086 8 6 8C8.20914 8 10 9.79086 10 12C10 14.2091 8.20914 16 6 16C3.79086 16 2 14.2091 2 12Z" fill="#8D939A"/>
<path id="Vector (Stroke)_3" fill-rule="evenodd" clip-rule="evenodd" d="M18 17C16.8954 17 16 17.8954 16 19C16 20.1046 16.8954 21 18 21C19.1046 21 20 20.1046 20 19C20 17.8954 19.1046 17 18 17ZM14 19C14 16.7909 15.7909 15 18 15C20.2091 15 22 16.7909 22 19C22 21.2091 20.2091 23 18 23C15.7909 23 14 21.2091 14 19Z" fill="#8D939A"/>
<path id="Vector (Stroke)_4" fill-rule="evenodd" clip-rule="evenodd" d="M7.726 13.0084C8.00406 12.5312 8.61631 12.3698 9.09348 12.6479L15.9235 16.6279C16.4007 16.9059 16.5621 17.5182 16.284 17.9954C16.006 18.4725 15.3937 18.634 14.9165 18.3559L8.08653 14.3759C7.60935 14.0978 7.44794 13.4856 7.726 13.0084Z" fill="#8D939A"/>
<path id="Vector (Stroke)_5" fill-rule="evenodd" clip-rule="evenodd" d="M16.2737 6.00785C16.5521 6.48485 16.391 7.0972 15.914 7.37557L9.09403 11.3556C8.61703 11.6339 8.00469 11.4729 7.72632 10.9959C7.44795 10.5189 7.60898 9.90656 8.08598 9.62819L14.906 5.64819C15.383 5.36983 15.9953 5.53085 16.2737 6.00785Z" fill="#8D939A"/>
</g>
</svg>
