<svg width="40" height="40" viewBox="0 0 40 40" fill="none" xmlns="http://www.w3.org/2000/svg">
<rect width="40" height="40" rx="4" fill="#7654FF"/>
<path fill-rule="evenodd" clip-rule="evenodd" d="M18.0862 9.59386C18.2467 9.23273 18.6048 9 19 9C20.0609 9 21.0783 9.42143 21.8284 10.1716C22.5786 10.9217 23 11.9391 23 13V16H27.6549C28.0876 15.996 28.5162 16.0857 28.911 16.2629C29.3078 16.441 29.6611 16.7032 29.9465 17.0313C30.2318 17.3595 30.4424 17.7458 30.5637 18.1634C30.6849 18.5811 30.7139 19.0201 30.6487 19.4501L29.2687 28.4499C29.2687 28.4502 29.2687 28.4497 29.2687 28.4499C29.1601 29.165 28.7966 29.8175 28.2456 30.2859C27.6958 30.7532 26.9961 31.0067 26.2748 31H12C11.2043 31 10.4413 30.6839 9.87868 30.1213C9.31607 29.5587 9 28.7957 9 28V21C9 20.2044 9.31607 19.4413 9.87868 18.8787C10.4413 18.3161 11.2043 18 12 18H14.3501L18.0862 9.59386ZM14 20H12C11.7348 20 11.4804 20.1054 11.2929 20.2929C11.1054 20.4804 11 20.7348 11 21V28C11 28.2652 11.1054 28.5196 11.2929 28.7071C11.4804 28.8946 11.7348 29 12 29H14V20ZM16 29H26.2913C26.5325 29.0027 26.7665 28.9183 26.9503 28.7621C27.134 28.6059 27.2551 28.3885 27.2913 28.1501L28.6713 19.1499C28.6713 19.1501 28.6713 19.1498 28.6713 19.1499C28.693 19.0067 28.6834 18.8601 28.643 18.7211C28.6026 18.5818 28.5324 18.4531 28.4373 18.3437C28.3421 18.2343 28.2244 18.1469 28.0921 18.0875C27.9599 18.0282 27.8163 17.9983 27.6713 17.9999L27.66 18.0001L22 18C21.4477 18 21 17.5523 21 17V13C21 12.4696 20.7893 11.9609 20.4142 11.5858C20.1864 11.3579 19.9092 11.1907 19.6078 11.0946L16 19.2122V29Z" fill="white"/>
</svg>
