<svg width="61" height="24" viewBox="0 0 61 24" fill="none" xmlns="http://www.w3.org/2000/svg">
<rect width="61" height="24" rx="12" fill="#7654FF"/>
<path fill-rule="evenodd" clip-rule="evenodd" d="M11.7037 9.41797C11.5834 9.41797 11.468 9.46577 11.3829 9.55086C11.2978 9.63594 11.25 9.75134 11.25 9.87167V17.6906L12.3771 16.5636C12.5177 16.4229 12.7085 16.3439 12.9074 16.3439H20.1296C20.25 16.3439 20.3654 16.2961 20.4504 16.211C20.5355 16.1259 20.5833 16.0105 20.5833 15.8902V9.87167C20.5833 9.75134 20.5355 9.63594 20.4504 9.55086C20.3654 9.46577 20.25 9.41797 20.1296 9.41797H11.7037ZM10.3222 8.4902C10.6886 8.1238 11.1855 7.91797 11.7037 7.91797H20.1296C20.6478 7.91797 21.1447 8.1238 21.5111 8.4902C21.8775 8.85659 22.0833 9.35352 22.0833 9.87167V15.8902C22.0833 16.4083 21.8775 16.9053 21.5111 17.2717C21.1447 17.6381 20.6478 17.8439 20.1296 17.8439H13.2181L11.0303 20.0316C10.8158 20.2461 10.4932 20.3103 10.213 20.1942C9.93273 20.0781 9.75 19.8046 9.75 19.5013V9.87167C9.75 9.35352 9.95584 8.85659 10.3222 8.4902Z" fill="white"/>
<path fill-rule="evenodd" clip-rule="evenodd" d="M15.8678 6.08203C15.7474 6.08203 15.632 6.12983 15.5469 6.21492C15.4619 6.3 15.4141 6.41541 15.4141 6.53573V7.28574H13.9141V6.53573C13.9141 6.01758 14.1199 5.52065 14.4863 5.15426C14.8527 4.78787 15.3496 4.58203 15.8678 4.58203H24.2937C24.8118 4.58203 25.3088 4.78787 25.6752 5.15426C26.0416 5.52065 26.2474 6.01758 26.2474 6.53573V12.5543C26.2474 13.0724 26.0416 13.5693 25.6752 13.9357C25.3088 14.3021 24.8118 14.508 24.2937 14.508H22.6641V13.008H24.2937C24.414 13.008 24.5294 12.9602 24.6145 12.8751C24.6996 12.79 24.7474 12.6746 24.7474 12.5543V6.53573C24.7474 6.41541 24.6996 6.3 24.6145 6.21492C24.5294 6.12983 24.414 6.08203 24.2937 6.08203H15.8678Z" fill="white"/>
<path d="M32.696 8.04H34.436V6.936H35.672V8.04H37.4V9.096H35.672C35.672 10.236 36.356 11.328 37.7 11.82L37.1 12.804C36.128 12.444 35.468 11.772 35.084 10.944C34.712 11.856 34.04 12.612 33.044 13.008L32.444 12.036C33.776 11.496 34.436 10.308 34.436 9.096H32.696V8.04ZM40.208 6.792H41.456V14.016H40.208V10.464H39.2V13.08H37.964V6.972H39.2V9.396H40.208V6.792ZM37.184 13.536H38.492V13.728C38.492 14.952 39.836 16.116 41.972 16.404L41.492 17.436C39.8 17.172 38.492 16.416 37.832 15.36C37.184 16.416 35.876 17.172 34.184 17.436L33.704 16.404C35.84 16.116 37.184 14.952 37.184 13.728V13.536ZM44.1443 7.08H45.4523V8.088H49.9883V7.08H51.3083V11.088H48.3803V12.072H52.5443V13.116H42.8963V12.072H47.0483V11.088H44.1443V7.08ZM45.4523 9.084V10.056H49.9883V9.084H45.4523ZM47.0363 13.716H48.3803V13.944C48.3803 15.108 49.6643 16.152 51.8483 16.416L51.3923 17.436C49.6763 17.196 48.3683 16.5 47.7203 15.504C47.0603 16.5 45.7523 17.196 44.0483 17.436L43.5803 16.416C45.7643 16.152 47.0363 15.108 47.0363 13.944V13.716Z" fill="white"/>
</svg>
