<svg width="128" height="28" viewBox="0 0 128 28" fill="none" xmlns="http://www.w3.org/2000/svg">
<path d="M120.362 18.5664C122.402 18.5664 123.674 16.9993 123.674 14.4861C123.674 11.9433 122.402 10.3763 120.362 10.3763C118.381 10.3763 116.814 12.1503 116.814 14.4861C116.814 16.7923 118.381 18.5664 120.362 18.5664ZM120.776 7.24219C124.797 7.24219 127.488 10.2285 127.488 14.4861C127.488 18.7438 124.797 21.73 120.776 21.73C120.007 21.73 118.026 21.3752 116.814 19.7195V27.88H113V7.27175H116.814V9.25275C118.026 7.68569 120.037 7.24219 120.776 7.24219Z" fill="#09090A"/>
<path d="M100.986 15.3469C100.986 17.4758 102.169 18.5697 103.972 18.5697C105.776 18.5697 106.988 17.3575 106.929 15.2287V7.30469H110.743V21.7038H106.929V19.989C106.042 21.2012 104.534 21.763 103.144 21.763C99.6259 21.763 97.1719 19.3089 97.1719 15.4061V7.30469H100.986V15.3469Z" fill="#09090A"/>
<path d="M87.9512 24.0971C88.5721 24.2154 89.2226 24.3633 89.6957 24.3633C90.4644 24.3633 91.0262 23.5649 91.0262 22.6484V7.27349H94.8403V22.6484C94.8403 25.7825 92.7115 28 89.6957 28C88.9269 28 87.8625 27.8522 87.0938 27.6748L87.9512 24.0971ZM92.948 0C94.1307 0 94.9882 0.857444 94.9882 2.04013C94.9882 3.25238 94.1307 4.10982 92.948 4.10982C91.7358 4.10982 90.8783 3.25238 90.8783 2.04013C90.8783 0.857444 91.7358 0 92.948 0Z" fill="#09090A"/>
<path d="M81.1669 18.5664C83.207 18.5664 84.4784 16.9993 84.4784 14.4861C84.4784 11.9433 83.207 10.3763 81.1669 10.3763C79.1859 10.3763 77.6188 12.1503 77.6188 14.4861C77.6188 16.7923 79.1859 18.5664 81.1669 18.5664ZM81.5808 7.24219C85.6019 7.24219 88.2925 10.2285 88.2925 14.4861C88.2925 18.7438 85.6019 21.73 81.5808 21.73C80.8121 21.73 78.8311 21.3752 77.6188 19.7195V27.88H73.8047V7.27175H77.6188V9.25275C78.8311 7.68569 80.8417 7.24219 81.5808 7.24219Z" fill="#09090A"/>
<path d="M61.7985 15.3469C61.7985 17.4758 62.9812 18.5697 64.7848 18.5697C66.5884 18.5697 67.8006 17.3575 67.7415 15.2287V7.30469H71.5556V21.7038H67.7415V19.989C66.8545 21.2012 65.3466 21.763 63.9569 21.763C60.4384 21.763 57.9844 19.3089 57.9844 15.4061V7.30469H61.7985V15.3469Z" fill="#09090A"/>
<path d="M48.7637 24.0971C49.3846 24.2154 50.0351 24.3633 50.5082 24.3633C51.2769 24.3633 51.8387 23.5649 51.8387 22.6484V7.27349H55.6528V22.6484C55.6528 25.7825 53.524 28 50.5082 28C49.7394 28 48.675 27.8522 47.9062 27.6748L48.7637 24.0971ZM53.7605 0C54.9432 0 55.8007 0.857444 55.8007 2.04013C55.8007 3.25238 54.9432 4.10982 53.7605 4.10982C52.5483 4.10982 51.6908 3.25238 51.6908 2.04013C51.6908 0.857444 52.5483 0 53.7605 0Z" fill="#09090A"/>
<path d="M35.1381 16.4403C35.6407 17.8595 37.0599 18.5691 37.9469 18.5691C39.2183 18.5691 39.9575 18.1256 39.9575 17.3864C39.9575 16.7064 38.8931 16.3516 37.533 15.849C35.552 15.1394 32.7727 14.1636 32.7727 11.3548C32.7727 8.69374 35.1676 7.15625 38.2426 7.15625C40.0758 7.15625 42.6777 8.22066 43.4464 10.8226L40.3419 12.0052C39.8392 10.4973 38.7748 10.3495 38.2426 10.3495C37.1486 10.3495 36.5869 10.7339 36.5869 11.3548C36.5869 12.0052 37.5921 12.3305 38.9818 12.8331C40.9924 13.5427 43.7421 14.548 43.7421 17.2977C43.7421 20.0179 41.4359 21.7624 37.9469 21.7624C35.6998 21.7624 33.1571 20.2545 32.2109 18.0961L35.1381 16.4403Z" fill="#09090A"/>
<path d="M24.1292 21.704V10.5276H21.3203V7.24569H24.1292V2.16016H27.9433V7.24569H31.3435V10.5276H27.9433V21.704H24.1292Z" fill="#09090A"/>
<path d="M13.5091 21.7334C9.39925 21.7334 6.53125 18.7767 6.53125 14.5486C6.53125 10.291 9.39925 7.30469 13.5091 7.30469C18.0328 7.30469 19.4816 11.0006 19.5408 11.178C20.4278 13.0703 20.1617 15.5243 20.1617 15.9087H10.168C10.5228 17.5053 12.0012 18.5697 13.5091 18.5697C15.4605 18.5697 16.3475 17.5645 16.6136 17.0618L19.7182 18.3036C19.0381 19.9594 16.998 21.7334 13.5091 21.7334ZM16.6432 13.3364C16.3179 11.6806 15.3422 10.4684 13.5091 10.4684C11.8238 10.4684 10.5228 11.5919 10.168 13.3364H16.6432Z" fill="#09090A"/>
<path d="M0.515625 0.324219H4.32978V21.6716H0.515625V0.324219Z" fill="#09090A"/>
</svg>
