<svg width="40" height="40" viewBox="0 0 40 40" fill="none" xmlns="http://www.w3.org/2000/svg">
<path fill-rule="evenodd" clip-rule="evenodd" d="M20 34.6654C20 34.6654 32 26.6654 32 17.332C32 14.1494 30.7357 11.0972 28.4853 8.84675C26.2348 6.59631 23.1826 5.33203 20 5.33203C16.8174 5.33203 13.7652 6.59631 11.5147 8.84675C9.26428 11.0972 8 14.1494 8 17.332C8 26.6654 20 34.6654 20 34.6654ZM28 17C28 21.4183 24.4183 25 20 25C15.5817 25 12 21.4183 12 17C12 12.5817 15.5817 9 20 9C24.4183 9 28 12.5817 28 17Z" fill="#7654FF"/>
<path d="M20 25C24.4183 25 28 21.4183 28 17C28 12.5817 24.4183 9 20 9C15.5817 9 12 12.5817 12 17C12 21.4183 15.5817 25 20 25Z" fill="#7654FF"/>
<path fill-rule="evenodd" clip-rule="evenodd" d="M13.3359 12.332H26.6693V13.6654H13.3359V12.332Z" fill="white"/>
<path fill-rule="evenodd" clip-rule="evenodd" d="M18.6641 11.0013C18.4873 11.0013 18.3177 11.0715 18.1927 11.1966C18.0676 11.3216 17.9974 11.4912 17.9974 11.668V13.0013C17.9974 13.3695 17.6989 13.668 17.3307 13.668C16.9625 13.668 16.6641 13.3695 16.6641 13.0013V11.668C16.6641 11.1375 16.8748 10.6288 17.2498 10.2538C17.6249 9.87868 18.1336 9.66797 18.6641 9.66797H21.3307C21.8612 9.66797 22.3699 9.87868 22.7449 10.2538C23.12 10.6288 23.3307 11.1375 23.3307 11.668V13.0013C23.3307 13.3695 23.0323 13.668 22.6641 13.668C22.2959 13.668 21.9974 13.3695 21.9974 13.0013V11.668C21.9974 11.4912 21.9272 11.3216 21.8021 11.1966C21.6771 11.0715 21.5075 11.0013 21.3307 11.0013H18.6641ZM15.3307 12.3346C15.6989 12.3346 15.9974 12.6331 15.9974 13.0013V22.3346C15.9974 22.5114 16.0676 22.681 16.1927 22.806C16.3177 22.9311 16.4873 23.0013 16.6641 23.0013H23.3307C23.5075 23.0013 23.6771 22.9311 23.8021 22.806C23.9272 22.681 23.9974 22.5114 23.9974 22.3346V13.0013C23.9974 12.6331 24.2959 12.3346 24.6641 12.3346C25.0323 12.3346 25.3307 12.6331 25.3307 13.0013V22.3346C25.3307 22.8651 25.12 23.3738 24.7449 23.7488C24.3699 24.1239 23.8612 24.3346 23.3307 24.3346H16.6641C16.1336 24.3346 15.6249 24.1239 15.2498 23.7488C14.8748 23.3738 14.6641 22.8651 14.6641 22.3346V13.0013C14.6641 12.6331 14.9625 12.3346 15.3307 12.3346Z" fill="white"/>
<path fill-rule="evenodd" clip-rule="evenodd" d="M19.3333 15.668V21.0013H18V15.668H19.3333Z" fill="white"/>
<path fill-rule="evenodd" clip-rule="evenodd" d="M21.9974 15.668V21.0013H20.6641V15.668H21.9974Z" fill="white"/>
</svg>
