<svg width="48" height="48" viewBox="0 0 48 48" fill="none" xmlns="http://www.w3.org/2000/svg">
<path fill-rule="evenodd" clip-rule="evenodd" d="M24 6C14.0589 6 6 14.0589 6 24C6 33.9411 14.0589 42 24 42C33.9411 42 42 33.9411 42 24C42 14.0589 33.9411 6 24 6ZM2 24C2 11.8497 11.8497 2 24 2C36.1503 2 46 11.8497 46 24C46 36.1503 36.1503 46 24 46C11.8497 46 2 36.1503 2 24Z" fill="#D5D9DE"/>
<path fill-rule="evenodd" clip-rule="evenodd" d="M16.9488 28.3825C18.5447 27.2219 20.9491 26 24.0001 26C27.0512 26 29.4556 27.2219 31.0515 28.3825C31.8533 28.9656 32.4731 29.5486 32.8972 29.9912C33.1101 30.2133 33.2761 30.4026 33.3934 30.5424C33.4521 30.6123 33.4988 30.6701 33.5333 30.7137L33.5759 30.7682L33.5903 30.787L33.5958 30.7942L33.5981 30.7973L33.5991 30.7987C33.5996 30.7994 33.6001 30.8 32.0512 31.9617L33.6001 30.8C34.2629 31.6837 34.0838 32.9373 33.2001 33.6C32.3192 34.2607 31.0708 34.0848 30.4064 33.2083L30.3971 33.1965C30.3852 33.1814 30.3626 33.1533 30.3295 33.1139C30.2632 33.0349 30.1557 32.9117 30.0093 32.7588C29.7147 32.4514 29.272 32.0344 28.6988 31.6175C27.5447 30.7781 25.9491 30 24.0001 30C22.0512 30 20.4556 30.7781 19.3015 31.6175C18.7283 32.0344 18.2856 32.4514 17.991 32.7588C17.8445 32.9117 17.737 33.0349 17.6707 33.1139C17.6377 33.1533 17.615 33.1814 17.6031 33.1965L17.5938 33.2083C16.9295 34.0848 15.681 34.2607 14.8001 33.6C13.9165 32.9373 13.7374 31.6837 14.4001 30.8L16.0001 32C14.4001 30.8 14.4006 30.7994 14.4011 30.7987L14.4021 30.7973L14.4044 30.7942L14.4099 30.787L14.4243 30.7682L14.4669 30.7137C14.5014 30.6701 14.5481 30.6123 14.6068 30.5424C14.7241 30.4026 14.8901 30.2133 15.103 29.9912C15.5272 29.5486 16.147 28.9656 16.9488 28.3825Z" fill="#D5D9DE"/>
<path fill-rule="evenodd" clip-rule="evenodd" d="M16 18C16 16.8954 16.8954 16 18 16H18.02C19.1246 16 20.02 16.8954 20.02 18C20.02 19.1046 19.1246 20 18.02 20H18C16.8954 20 16 19.1046 16 18Z" fill="#D5D9DE"/>
<path fill-rule="evenodd" clip-rule="evenodd" d="M28 18C28 16.8954 28.8954 16 30 16H30.02C31.1246 16 32.02 16.8954 32.02 18C32.02 19.1046 31.1246 20 30.02 20H30C28.8954 20 28 19.1046 28 18Z" fill="#D5D9DE"/>
</svg>
