<svg width="48" height="48" viewBox="0 0 48 48" fill="none" xmlns="http://www.w3.org/2000/svg">
<path fill-rule="evenodd" clip-rule="evenodd" d="M24 6C14.0589 6 6 14.0589 6 24C6 33.9411 14.0589 42 24 42C33.9411 42 42 33.9411 42 24C42 14.0589 33.9411 6 24 6ZM2 24C2 11.8497 11.8497 2 24 2C36.1503 2 46 11.8497 46 24C46 36.1503 36.1503 46 24 46C11.8497 46 2 36.1503 2 24Z" fill="#D5D9DE"/>
<path fill-rule="evenodd" clip-rule="evenodd" d="M14 30C14 28.8954 14.8954 28 16 28H32C33.1046 28 34 28.8954 34 30C34 31.1046 33.1046 32 32 32H16C14.8954 32 14 31.1046 14 30Z" fill="#D5D9DE"/>
<path fill-rule="evenodd" clip-rule="evenodd" d="M16 18C16 16.8954 16.8954 16 18 16H18.02C19.1246 16 20.02 16.8954 20.02 18C20.02 19.1046 19.1246 20 18.02 20H18C16.8954 20 16 19.1046 16 18Z" fill="#D5D9DE"/>
<path fill-rule="evenodd" clip-rule="evenodd" d="M28 18C28 16.8954 28.8954 16 30 16H30.02C31.1246 16 32.02 16.8954 32.02 18C32.02 19.1046 31.1246 20 30.02 20H30C28.8954 20 28 19.1046 28 18Z" fill="#D5D9DE"/>
</svg>
