<svg width="48" height="48" viewBox="0 0 48 48" fill="none" xmlns="http://www.w3.org/2000/svg">
<path fill-rule="evenodd" clip-rule="evenodd" d="M24 6C14.0589 6 6 14.0589 6 24C6 33.9411 14.0589 42 24 42C33.9411 42 42 33.9411 42 24C42 14.0589 33.9411 6 24 6ZM2 24C2 11.8497 11.8497 2 24 2C36.1503 2 46 11.8497 46 24C46 36.1503 36.1503 46 24 46C11.8497 46 2 36.1503 2 24Z" fill="#D5D9DE"/>
<path fill-rule="evenodd" clip-rule="evenodd" d="M17.5938 26.7918C16.9295 25.9153 15.681 25.7395 14.8001 26.4001C13.9165 27.0629 13.7374 28.3165 14.4001 29.2001L16.0001 28.0001C14.4001 29.2001 14.4006 29.2008 14.4011 29.2014L14.4021 29.2028L14.4044 29.2059L14.4099 29.2131L14.4243 29.2319L14.4669 29.2864C14.5014 29.33 14.5481 29.3878 14.6068 29.4577C14.7241 29.5975 14.8901 29.7868 15.103 30.0089C15.5272 30.4515 16.147 31.0345 16.9488 31.6176C18.5447 32.7782 20.9491 34.0001 24.0001 34.0001C27.0512 34.0001 29.4556 32.7782 31.0515 31.6176C31.8533 31.0345 32.4731 30.4515 32.8972 30.0089C33.1101 29.7868 33.2761 29.5975 33.3934 29.4577C33.4521 29.3878 33.4988 29.33 33.5333 29.2864L33.5759 29.2319L33.5903 29.2131L33.5958 29.2059L33.5981 29.2028L33.5991 29.2014C33.5996 29.2008 33.6001 29.2001 32.0512 28.0384L33.6001 29.2001C34.2629 28.3165 34.0838 27.0629 33.2001 26.4001C32.3192 25.7395 31.0708 25.9154 30.4064 26.7918L30.3971 26.8036C30.3852 26.8187 30.3626 26.8468 30.3295 26.8863C30.2632 26.9653 30.1557 27.0885 30.0093 27.2413C29.7147 27.5487 29.272 27.9658 28.6988 28.3826C27.5447 29.222 25.9491 30.0001 24.0001 30.0001C22.0512 30.0001 20.4556 29.222 19.3015 28.3826C18.7283 27.9658 18.2856 27.5487 17.991 27.2413C17.8445 27.0885 17.737 26.9653 17.6707 26.8863C17.6377 26.8468 17.615 26.8187 17.6031 26.8036L17.5938 26.7918ZM30.401 26.7989C30.4028 26.7965 30.4046 26.7942 30.4064 26.7918L30.4055 26.7929L30.4033 26.7958L30.4019 26.7978L30.401 26.7989Z" fill="#D5D9DE"/>
<path fill-rule="evenodd" clip-rule="evenodd" d="M16 18C16 16.8954 16.8954 16 18 16H18.02C19.1246 16 20.02 16.8954 20.02 18C20.02 19.1046 19.1246 20 18.02 20H18C16.8954 20 16 19.1046 16 18Z" fill="#D5D9DE"/>
<path fill-rule="evenodd" clip-rule="evenodd" d="M28 18C28 16.8954 28.8954 16 30 16H30.02C31.1246 16 32.02 16.8954 32.02 18C32.02 19.1046 31.1246 20 30.02 20H30C28.8954 20 28 19.1046 28 18Z" fill="#D5D9DE"/>
</svg>
