<svg width="300" height="44" viewBox="0 0 300 44" fill="none" xmlns="http://www.w3.org/2000/svg">
<rect width="300" height="44" rx="4" fill="#FEE500"/>
<path opacity="0.902" fill-rule="evenodd" clip-rule="evenodd" d="M24 14.3594C19.29 14.3594 15 18.0856 15 21.238C15 22.5979 15.5164 23.8654 16.4074 24.9325C17.6164 26.3804 18.5717 28.2206 18.0689 30.0385L17.933 30.5298C17.844 30.8497 18.213 31.1036 18.496 30.9196L21.9279 28.6778C22.5397 28.2782 23.2692 28.1166 24 28.1166C28.97 28.1166 33 25.037 33 21.238C33 18.0856 28.97 14.3594 24 14.3594Z" fill="black"/>
<path d="M118.888 18.032C118.879 22.0173 117.012 24.948 113.288 26.824L112.518 25.872C114.562 24.9387 116.009 23.632 116.858 21.952L112.938 22.372L112.714 21.28L117.264 20.93C117.451 20.342 117.558 19.726 117.586 19.082H113.204V18.032H118.888ZM121.982 16.744V21.672H123.928V22.694H121.982V28.98H120.75V16.744H121.982ZM131.001 18.032C130.992 22.0173 129.125 24.948 125.401 26.824L124.631 25.872C126.675 24.9387 128.122 23.632 128.971 21.952L125.051 22.372L124.827 21.28L129.377 20.93C129.564 20.342 129.671 19.726 129.699 19.082H125.317V18.032H131.001ZM134.095 16.744V21.672H136.041V22.694H134.095V28.98H132.863V16.744H134.095ZM146.839 20.902C146.839 21.854 146.479 22.638 145.761 23.254C145.051 23.8607 144.095 24.2107 142.891 24.304V26.376H147.805V27.398H136.759V26.376H141.645V24.29C140.45 24.1873 139.498 23.8327 138.789 23.226C138.079 22.6193 137.725 21.8447 137.725 20.902C137.725 19.8847 138.14 19.0633 138.971 18.438C139.811 17.8127 140.912 17.5 142.275 17.5C143.656 17.5 144.762 17.8127 145.593 18.438C146.423 19.054 146.839 19.8753 146.839 20.902ZM144.655 22.61C145.261 22.1713 145.565 21.602 145.565 20.902C145.565 20.202 145.261 19.6327 144.655 19.194C144.057 18.7553 143.264 18.536 142.275 18.536C141.295 18.536 140.501 18.7553 139.895 19.194C139.297 19.6327 138.999 20.202 138.999 20.902C138.999 21.602 139.297 22.1713 139.895 22.61C140.501 23.0487 141.295 23.268 142.275 23.268C143.255 23.268 144.048 23.0487 144.655 22.61ZM163.596 27.426H152.55V26.418H157.422V24.486H153.88V20.552H160.992V18.76H153.852V17.752H162.224V21.56H155.112V23.478H162.56V24.486H158.668V26.418H163.596V27.426ZM175.709 27.202H164.663V26.194H175.709V27.202ZM174.239 18.13C174.239 21.2567 174.048 23.6507 173.665 25.312L172.461 25.158C172.61 24.598 172.732 23.702 172.825 22.47C172.928 21.2287 172.979 20.1133 172.979 19.124H165.811V18.13H174.239ZM186.814 25.634H185.568V16.744H186.814V25.634ZM187.094 28.602H178.764V24.794H180.01V27.608H187.094V28.602ZM177.98 18.452C178.596 17.864 179.375 17.57 180.318 17.57C181.261 17.57 182.04 17.8593 182.656 18.438C183.281 19.0167 183.594 19.7447 183.594 20.622C183.594 21.4993 183.286 22.218 182.67 22.778C182.054 23.3287 181.27 23.604 180.318 23.604C179.375 23.604 178.596 23.3287 177.98 22.778C177.364 22.218 177.056 21.504 177.056 20.636C177.056 19.7587 177.364 19.0307 177.98 18.452ZM180.318 18.634C179.749 18.634 179.277 18.8207 178.904 19.194C178.54 19.5673 178.358 20.0387 178.358 20.608C178.358 21.168 178.54 21.6347 178.904 22.008C179.277 22.3813 179.749 22.568 180.318 22.568C180.915 22.568 181.391 22.386 181.746 22.022C182.101 21.658 182.278 21.1913 182.278 20.622C182.278 20.034 182.101 19.558 181.746 19.194C181.391 18.8207 180.915 18.634 180.318 18.634Z" fill="black"/>
</svg>
