<svg width="160" height="160" viewBox="0 0 160 160" fill="none" xmlns="http://www.w3.org/2000/svg">
<rect width="160" height="160" rx="4" fill="#EEF0F3"/>
<path fill-rule="evenodd" clip-rule="evenodd" d="M39.8105 98.4785C44.8115 93.4775 51.5942 90.668 58.6667 90.668H101.333C108.406 90.668 115.189 93.4775 120.19 98.4785C125.19 103.479 128 110.262 128 117.335V133.335H117.333V117.335C117.333 113.091 115.648 109.022 112.647 106.021C109.646 103.02 105.577 101.335 101.333 101.335H58.6667C54.4232 101.335 50.3535 103.02 47.353 106.021C44.3524 109.022 42.6667 113.091 42.6667 117.335V133.335H32V117.335C32 110.262 34.8095 103.479 39.8105 98.4785Z" fill="white"/>
<path fill-rule="evenodd" clip-rule="evenodd" d="M80.0026 37.3346C71.166 37.3346 64.0026 44.4981 64.0026 53.3346C64.0026 62.1712 71.166 69.3346 80.0026 69.3346C88.8392 69.3346 96.0026 62.1712 96.0026 53.3346C96.0026 44.4981 88.8392 37.3346 80.0026 37.3346ZM53.3359 53.3346C53.3359 38.607 65.275 26.668 80.0026 26.668C94.7302 26.668 106.669 38.607 106.669 53.3346C106.669 68.0622 94.7302 80.0013 80.0026 80.0013C65.275 80.0013 53.3359 68.0622 53.3359 53.3346Z" fill="white"/>
</svg>
