<svg width="20" height="20" viewBox="0 0 20 20" fill="none" xmlns="http://www.w3.org/2000/svg">
<g id="ic / bookmark">
<path id="Vector (Stroke)" fill-rule="evenodd" clip-rule="evenodd" d="M5.83203 3.33464C5.61102 3.33464 5.39906 3.42243 5.24278 3.57871C5.0865 3.73499 4.9987 3.94695 4.9987 4.16797V15.882L9.51433 12.6565C9.80408 12.4496 10.1933 12.4496 10.4831 12.6565L14.9987 15.882V4.16797C14.9987 3.94696 14.9109 3.73499 14.7546 3.57871C14.5983 3.42243 14.3864 3.33464 14.1654 3.33464H5.83203ZM4.06426 2.4002C4.53311 1.93136 5.16899 1.66797 5.83203 1.66797H14.1654C14.8284 1.66797 15.4643 1.93136 15.9331 2.4002C16.402 2.86904 16.6654 3.50493 16.6654 4.16797V17.5013C16.6654 17.8135 16.4909 18.0994 16.2133 18.2423C15.9358 18.3851 15.6017 18.3608 15.3477 18.1794L9.9987 14.3587L4.64973 18.1794C4.39572 18.3608 4.06161 18.3851 3.78405 18.2423C3.50649 18.0994 3.33203 17.8135 3.33203 17.5013V4.16797C3.33203 3.50493 3.59542 2.86904 4.06426 2.4002Z" fill="#09090A"/>
</g>
</svg>
