<svg width="20" height="20" viewBox="0 0 20 20" fill="none" xmlns="http://www.w3.org/2000/svg">
<g id="ic / calendar">
<path id="Vector (Stroke)" fill-rule="evenodd" clip-rule="evenodd" d="M4.16797 4.16667C3.70773 4.16667 3.33464 4.53976 3.33464 5V16.6667C3.33464 17.1269 3.70773 17.5 4.16797 17.5H15.8346C16.2949 17.5 16.668 17.1269 16.668 16.6667V5C16.668 4.53976 16.2949 4.16667 15.8346 4.16667H4.16797ZM1.66797 5C1.66797 3.61929 2.78726 2.5 4.16797 2.5H15.8346C17.2153 2.5 18.3346 3.61929 18.3346 5V16.6667C18.3346 18.0474 17.2153 19.1667 15.8346 19.1667H4.16797C2.78726 19.1667 1.66797 18.0474 1.66797 16.6667V5Z" fill="#09090A"/>
<path id="Vector (Stroke)_2" fill-rule="evenodd" clip-rule="evenodd" d="M13.3333 0.832031C13.7936 0.832031 14.1667 1.20513 14.1667 1.66536V4.9987C14.1667 5.45894 13.7936 5.83203 13.3333 5.83203C12.8731 5.83203 12.5 5.45894 12.5 4.9987V1.66536C12.5 1.20513 12.8731 0.832031 13.3333 0.832031Z" fill="#09090A"/>
<path id="Vector (Stroke)_3" fill-rule="evenodd" clip-rule="evenodd" d="M6.66536 0.832031C7.1256 0.832031 7.4987 1.20513 7.4987 1.66536V4.9987C7.4987 5.45894 7.1256 5.83203 6.66536 5.83203C6.20513 5.83203 5.83203 5.45894 5.83203 4.9987V1.66536C5.83203 1.20513 6.20513 0.832031 6.66536 0.832031Z" fill="#09090A"/>
<path id="Vector (Stroke)_4" fill-rule="evenodd" clip-rule="evenodd" d="M1.66797 8.33333C1.66797 7.8731 2.04106 7.5 2.5013 7.5H17.5013C17.9615 7.5 18.3346 7.8731 18.3346 8.33333C18.3346 8.79357 17.9615 9.16667 17.5013 9.16667H2.5013C2.04106 9.16667 1.66797 8.79357 1.66797 8.33333Z" fill="#09090A"/>
</g>
</svg>
