<svg width="48" height="52" viewBox="0 0 48 52" fill="none" xmlns="http://www.w3.org/2000/svg">
<g id="Group 165">
<path id="Vector" d="M32.9078 12.5668C33.3114 11.9298 34.1189 11.6819 34.8103 11.9826L46.5617 17.0934C46.9715 17.2717 47.2829 17.6202 47.414 18.0474C47.5452 18.4745 47.483 18.9377 47.2438 19.3152L26.9861 51.2888C26.5826 51.9258 25.7751 52.1737 25.0836 51.873L3.25814 42.3807C2.08316 41.8697 1.63622 40.4445 2.2903 39.3545L4.39919 35.8402C7.20709 31.1609 13.0405 29.279 18.038 31.4526L20.3148 32.4428L32.9078 12.5668Z" fill="#7654FF"/>
<path id="Union" d="M33.6859 0.169505C32.7639 -0.231476 31.6873 0.0991035 31.1492 0.948386L18.7899 20.4555L16.4413 19.4341C11.4861 17.2789 5.70178 19.1448 2.91739 23.7849L0.808504 27.2992C0.182669 28.3422 0.610368 29.7057 1.7344 30.1945L23.0876 39.4814C24.0095 39.8823 25.0862 39.5518 25.6243 38.7025L45.2305 7.75721C45.9004 6.69983 45.4688 5.29407 44.3209 4.79484L33.6859 0.169505Z" fill="#C5CEF9"/>
<path id="Vector 103" d="M35.3608 14.7783L20.8008 19.7589L24.0345 14.1954L35.3608 9.87891V14.7783Z" fill="url(#paint0_linear_4783_2958)" fill-opacity="0.6"/>
<path id="Vector 102" d="M4.82789 23.5132L2.08552 27.7791C1.80919 28.209 1.98203 28.784 2.44955 28.9903L19.2394 36.3975L26.2594 24.9576L14.9943 20.319C11.2788 18.7891 7.00076 20.1332 4.82789 23.5132Z" fill="url(#paint1_linear_4783_2958)" fill-opacity="0.6"/>
</g>
<defs>
<linearGradient id="paint0_linear_4783_2958" x1="22.2975" y1="25.6028" x2="33.1206" y2="15.1358" gradientUnits="userSpaceOnUse">
<stop stop-color="white"/>
<stop offset="1" stop-color="white" stop-opacity="0"/>
</linearGradient>
<linearGradient id="paint1_linear_4783_2958" x1="1.8194" y1="19.4976" x2="13.2594" y2="30.1576" gradientUnits="userSpaceOnUse">
<stop stop-color="white"/>
<stop offset="1" stop-color="white" stop-opacity="0"/>
</linearGradient>
</defs>
</svg>
