<svg width="20" height="20" viewBox="0 0 20 20" fill="none" xmlns="http://www.w3.org/2000/svg">
<g id="ic / message-square">
<path id="Vector (Stroke)" fill-rule="evenodd" clip-rule="evenodd" d="M4.16797 3.33464C3.94695 3.33464 3.73499 3.42243 3.57871 3.57871C3.42243 3.73499 3.33464 3.94695 3.33464 4.16797V15.4895L5.24538 13.5787C5.40166 13.4224 5.61362 13.3346 5.83464 13.3346H15.8346C16.0556 13.3346 16.2676 13.2468 16.4239 13.0906C16.5802 12.9343 16.668 12.7223 16.668 12.5013V4.16797C16.668 3.94696 16.5802 3.73499 16.4239 3.57871C16.2676 3.42243 16.0556 3.33464 15.8346 3.33464H4.16797ZM2.4002 2.4002C2.86904 1.93136 3.50493 1.66797 4.16797 1.66797H15.8346C16.4977 1.66797 17.1336 1.93136 17.6024 2.4002C18.0712 2.86904 18.3346 3.50493 18.3346 4.16797V12.5013C18.3346 13.1643 18.0712 13.8002 17.6024 14.2691C17.1336 14.7379 16.4977 15.0013 15.8346 15.0013H6.17981L3.09056 18.0906C2.85223 18.3289 2.49379 18.4002 2.1824 18.2712C1.871 18.1422 1.66797 17.8384 1.66797 17.5013V4.16797C1.66797 3.50493 1.93136 2.86904 2.4002 2.4002Z" fill="#09090A"/>
</g>
</svg>
