<svg width="40" height="40" viewBox="0 0 40 40" fill="none" xmlns="http://www.w3.org/2000/svg">
<rect width="40" height="40" rx="4" fill="#D5D9DE"/>
<path fill-rule="evenodd" clip-rule="evenodd" d="M9.95262 24.6206C11.2029 23.3703 12.8986 22.668 14.6667 22.668H25.3333C27.1014 22.668 28.7971 23.3703 30.0474 24.6206C31.2976 25.8708 32 27.5665 32 29.3346V33.3346H29.3333V29.3346C29.3333 28.2738 28.9119 27.2564 28.1618 26.5062C27.4116 25.7561 26.3942 25.3346 25.3333 25.3346H14.6667C13.6058 25.3346 12.5884 25.7561 11.8382 26.5062C11.0881 27.2564 10.6667 28.2738 10.6667 29.3346V33.3346H8V29.3346C8 27.5665 8.70238 25.8708 9.95262 24.6206Z" fill="white"/>
<path fill-rule="evenodd" clip-rule="evenodd" d="M19.9987 9.33464C17.7896 9.33464 15.9987 11.1255 15.9987 13.3346C15.9987 15.5438 17.7896 17.3346 19.9987 17.3346C22.2078 17.3346 23.9987 15.5438 23.9987 13.3346C23.9987 11.1255 22.2078 9.33464 19.9987 9.33464ZM13.332 13.3346C13.332 9.65274 16.3168 6.66797 19.9987 6.66797C23.6806 6.66797 26.6654 9.65274 26.6654 13.3346C26.6654 17.0165 23.6806 20.0013 19.9987 20.0013C16.3168 20.0013 13.332 17.0165 13.332 13.3346Z" fill="white"/>
</svg>
