<svg width="52" height="52" viewBox="0 0 52 52" fill="none" xmlns="http://www.w3.org/2000/svg">
<g id="ic / star">
<path id="Union" d="M27.9442 3.37562C27.5792 2.63613 26.826 2.16797 26.0014 2.16797C25.1767 2.16797 24.4235 2.63613 24.0585 3.37562L17.8671 15.9186L4.02134 17.9424C3.20546 18.0617 2.52798 18.6337 2.27367 19.418C2.01935 20.2024 2.23227 21.0631 2.82294 21.6384L12.8399 31.3949L10.4759 45.1784C10.3365 45.9913 10.6707 46.8128 11.3379 47.2976C12.0052 47.7823 12.8899 47.8462 13.6198 47.4623L26.0014 40.951L38.3829 47.4623C39.1129 47.8462 39.9975 47.7823 40.6648 47.2976C41.3321 46.8128 41.6663 45.9913 41.5269 45.1784L39.1628 31.3949L49.1798 21.6384C49.7705 21.0631 49.9834 20.2024 49.7291 19.418C49.4748 18.6337 48.7973 18.0617 47.9814 17.9424L34.1356 15.9186L27.9442 3.37562Z" fill="url(#paint0_linear_4783_2963)"/>
<path id="Vector 100" d="M32.76 24.2451L14.3 30.4216L6.5 22.8816L29.6667 15.6016L32.76 24.2451Z" fill="url(#paint1_linear_4783_2963)" fill-opacity="0.4"/>
<path id="Vector 101" d="M31.4684 11.6363L19.7617 15.5363L21.3551 11.9598L30.4551 8.83984L31.4684 11.6363Z" fill="url(#paint2_linear_4783_2963)" fill-opacity="0.4"/>
</g>
<defs>
<linearGradient id="paint0_linear_4783_2963" x1="49.6229" y1="53.1765" x2="10.9969" y2="5.40238" gradientUnits="userSpaceOnUse">
<stop stop-color="#7654FF"/>
<stop offset="1" stop-color="#9747FF"/>
</linearGradient>
<linearGradient id="paint1_linear_4783_2963" x1="10.14" y1="47.4256" x2="33.1211" y2="24.8084" gradientUnits="userSpaceOnUse">
<stop stop-color="white"/>
<stop offset="1" stop-color="white" stop-opacity="0"/>
</linearGradient>
<linearGradient id="paint2_linear_4783_2963" x1="20.9651" y1="20.1123" x2="29.4446" y2="11.692" gradientUnits="userSpaceOnUse">
<stop stop-color="white"/>
<stop offset="1" stop-color="white" stop-opacity="0"/>
</linearGradient>
</defs>
</svg>
