<svg width="20" height="20" viewBox="0 0 20 20" fill="none" xmlns="http://www.w3.org/2000/svg">
<rect x="0.5" y="0.5" width="19" height="19" rx="1.5" stroke="#8D939A"/>
<g clip-path="url(#clip0_4844_410)">
<path fill-rule="evenodd" clip-rule="evenodd" d="M7.57645 4.64645C7.67021 4.55268 7.79739 4.5 7.93 4.5H12.07C12.2026 4.5 12.3298 4.55268 12.4236 4.64645L15.3536 7.57645C15.4473 7.67021 15.5 7.79739 15.5 7.93V12.07C15.5 12.2026 15.4473 12.3298 15.3536 12.4236L12.4236 15.3536C12.3298 15.4473 12.2026 15.5 12.07 15.5H7.93C7.79739 15.5 7.67021 15.4473 7.57645 15.3536L4.64645 12.4236C4.55268 12.3298 4.5 12.2026 4.5 12.07V7.93C4.5 7.79739 4.55268 7.67021 4.64645 7.57645L7.57645 4.64645ZM8.13711 5.5L5.5 8.13711V11.8629L8.13711 14.5H11.8629L14.5 11.8629V8.13711L11.8629 5.5H8.13711Z" fill="#8D939A"/>
<path fill-rule="evenodd" clip-rule="evenodd" d="M10 7.5C10.2761 7.5 10.5 7.72386 10.5 8V10C10.5 10.2761 10.2761 10.5 10 10.5C9.72386 10.5 9.5 10.2761 9.5 10V8C9.5 7.72386 9.72386 7.5 10 7.5Z" fill="#8D939A"/>
<path fill-rule="evenodd" clip-rule="evenodd" d="M9.5 12C9.5 11.7239 9.72386 11.5 10 11.5H10.005C10.2811 11.5 10.505 11.7239 10.505 12C10.505 12.2761 10.2811 12.5 10.005 12.5H10C9.72386 12.5 9.5 12.2761 9.5 12Z" fill="#8D939A"/>
</g>
<defs>
<clipPath id="clip0_4844_410">
<rect width="12" height="12" fill="white" transform="translate(4 4)"/>
</clipPath>
</defs>
</svg>
