<svg width="20" height="20" viewBox="0 0 20 20" fill="none" xmlns="http://www.w3.org/2000/svg">
<rect x="0.5" y="0.5" width="19" height="19" rx="1.5" stroke="#8D939A"/>
<path d="M6.01392 6.0232H11.993C13.1048 6.02441 14.0058 6.93902 14.0069 8.0675V12.114C14.0058 13.2426 13.1048 14.1572 11.9932 14.1584H11.5183V16L7.88383 14.1584H6.01391C4.90214 14.1572 4.00119 13.2426 4 12.1142V8.06761C4.00119 6.93902 4.90214 6.02441 6.0138 6.0232H6.01391H6.01392ZM11.993 13.0992C12.5288 13.0986 12.9629 12.6579 12.9635 12.1141V8.06761C12.9629 7.52379 12.5288 7.0831 11.9931 7.0825H6.01394C5.47821 7.08309 5.04409 7.52379 5.0435 8.06758V12.1141C5.04408 12.6579 5.47821 13.0986 6.01389 13.0992H8.13008L10.4748 14.2856V13.0992L11.993 13.0992ZM14.0106 12.1352H13.4852V11.076H14.0028C14.5267 11.0637 14.948 10.6339 14.9565 10.1023L14.9565 10.1014V6.04442C14.9565 5.50035 14.522 5.05929 13.9861 5.05929H8.00696C7.47101 5.05929 7.03653 5.50035 7.03653 6.04442V6.57406H5.99308V6.04441C5.99308 4.9153 6.89473 4 8.00699 4H13.9861C15.0983 4 16 4.9153 16 6.04441V10.1051C15.9922 11.2181 15.1095 12.1192 14.0158 12.1352H14.0143L14.0106 12.1352ZM7.5113 10.6205H6.51478V9.5612H7.5113V10.6205ZM9.50434 10.6205H8.50782V9.5612H9.50434V10.6205ZM11.4922 10.6205H10.4956V9.5612H11.4922V10.6205Z" fill="#8D939A"/>
</svg>
