<svg width="32" height="32" viewBox="0 0 32 32" fill="none" xmlns="http://www.w3.org/2000/svg">
<path fill-rule="evenodd" clip-rule="evenodd" d="M16 30.6654C16 30.6654 28 22.6654 28 13.332C28 10.1494 26.7357 7.09719 24.4853 4.84675C22.2348 2.59631 19.1826 1.33203 16 1.33203C12.8174 1.33203 9.76515 2.59631 7.51472 4.84675C5.26428 7.09719 4 10.1494 4 13.332C4 22.6654 16 30.6654 16 30.6654ZM24 13C24 17.4183 20.4183 21 16 21C11.5817 21 8 17.4183 8 13C8 8.58172 11.5817 5 16 5C20.4183 5 24 8.58172 24 13Z" fill="#7654FF"/>
<path d="M16 21C20.4183 21 24 17.4183 24 13C24 8.58172 20.4183 5 16 5C11.5817 5 8 8.58172 8 13C8 17.4183 11.5817 21 16 21Z" fill="white"/>
<path d="M17.2761 7.41406V19.0461L15.5801 19.0301V9.22206L13.5321 10.3581L12.8281 8.93406L15.5961 7.41406H17.2761Z" fill="#7654FF"/>
</svg>
