<svg width="32" height="32" viewBox="0 0 32 32" fill="none" xmlns="http://www.w3.org/2000/svg">
<path fill-rule="evenodd" clip-rule="evenodd" d="M16 30.6654C16 30.6654 28 22.6654 28 13.332C28 10.1494 26.7357 7.09719 24.4853 4.84675C22.2348 2.59631 19.1826 1.33203 16 1.33203C12.8174 1.33203 9.76515 2.59631 7.51472 4.84675C5.26428 7.09719 4 10.1494 4 13.332C4 22.6654 16 30.6654 16 30.6654ZM24 13C24 17.4183 20.4183 21 16 21C11.5817 21 8 17.4183 8 13C8 8.58172 11.5817 5 16 5C20.4183 5 24 8.58172 24 13Z" fill="#7654FF"/>
<path d="M16 21C20.4183 21 24 17.4183 24 13C24 8.58172 20.4183 5 16 5C11.5817 5 8 8.58172 8 13C8 17.4183 11.5817 21 16 21Z" fill="white"/>
<path d="M12.4115 17.5611C14.7475 15.3211 17.9315 13.0491 17.9315 11.0811C17.9315 9.76906 17.0995 8.84106 15.9155 8.84106C15.0035 8.84106 14.0915 9.49706 13.6755 10.4411L12.1875 9.78506C12.8275 8.31306 14.3795 7.28906 15.9155 7.28906C18.1075 7.28906 19.6275 8.85706 19.6275 11.0811C19.6275 13.5291 16.9715 15.7051 14.8115 17.5611H19.8195V19.0491H12.5715L12.4115 17.5611Z" fill="#7654FF"/>
</svg>
