<svg width="32" height="32" viewBox="0 0 32 32" fill="none" xmlns="http://www.w3.org/2000/svg">
<path fill-rule="evenodd" clip-rule="evenodd" d="M16 30.6654C16 30.6654 28 22.6654 28 13.332C28 10.1494 26.7357 7.09719 24.4853 4.84675C22.2348 2.59631 19.1826 1.33203 16 1.33203C12.8174 1.33203 9.76515 2.59631 7.51472 4.84675C5.26428 7.09719 4 10.1494 4 13.332C4 22.6654 16 30.6654 16 30.6654ZM24 13C24 17.4183 20.4183 21 16 21C11.5817 21 8 17.4183 8 13C8 8.58172 11.5817 5 16 5C20.4183 5 24 8.58172 24 13Z" fill="#7654FF"/>
<path d="M16 21C20.4183 21 24 17.4183 24 13C24 8.58172 20.4183 5 16 5C11.5817 5 8 8.58172 8 13C8 17.4183 11.5817 21 16 21Z" fill="white"/>
<path d="M18.2467 13.0327C19.2867 13.6407 19.9427 14.7767 19.9427 15.7527C19.9427 17.7367 18.3107 19.1447 15.9907 19.1447C13.6867 19.1447 12.0547 17.7047 12.0547 15.6567H13.7507C13.7507 16.8247 14.6787 17.6407 15.9907 17.6407C17.3347 17.6407 18.2947 16.8247 18.2947 15.6567C18.2947 14.5367 17.3507 13.7367 16.0227 13.7367H15.1907V12.3127H16.0387C17.2547 12.3127 18.1187 11.5927 18.1187 10.5687C18.1187 9.52869 17.2867 8.80869 16.1027 8.80869C14.9187 8.80869 14.1027 9.54469 14.1027 10.5847H12.4067C12.4067 8.64869 13.9267 7.30469 16.1027 7.30469C18.2467 7.30469 19.7667 8.61669 19.7667 10.4727C19.7667 11.3687 19.1907 12.4247 18.2467 13.0327Z" fill="#7654FF"/>
</svg>
