<svg width="32" height="32" viewBox="0 0 32 32" fill="none" xmlns="http://www.w3.org/2000/svg">
<path fill-rule="evenodd" clip-rule="evenodd" d="M16 30.6654C16 30.6654 28 22.6654 28 13.332C28 10.1494 26.7357 7.09719 24.4853 4.84675C22.2348 2.59631 19.1826 1.33203 16 1.33203C12.8174 1.33203 9.76515 2.59631 7.51472 4.84675C5.26428 7.09719 4 10.1494 4 13.332C4 22.6654 16 30.6654 16 30.6654ZM24 13C24 17.4183 20.4183 21 16 21C11.5817 21 8 17.4183 8 13C8 8.58172 11.5817 5 16 5C20.4183 5 24 8.58172 24 13Z" fill="#7654FF"/>
<path d="M16 21C20.4183 21 24 17.4183 24 13C24 8.58172 20.4183 5 16 5C11.5817 5 8 8.58172 8 13C8 17.4183 11.5817 21 16 21Z" fill="white"/>
<path d="M14.1284 13.8304L12.4324 13.6224L12.8324 7.39844H19.0564V8.88644H14.4644L14.2724 11.7344C14.8004 11.4944 15.3924 11.3504 15.9204 11.3504C18.3204 11.3504 20.0164 12.9664 20.0164 15.2544C20.0164 17.5744 18.3204 19.2064 15.9204 19.2064C14.0324 19.2064 12.4004 17.9424 11.9844 16.1504L13.6324 15.7664C13.8724 16.8384 14.8164 17.6064 15.9204 17.6064C17.3284 17.6064 18.3204 16.6304 18.3204 15.2544C18.3204 13.9104 17.3284 12.9504 15.9204 12.9504C15.3284 12.9504 14.5924 13.3184 14.1284 13.8304Z" fill="#7654FF"/>
</svg>
