<svg width="32" height="32" viewBox="0 0 32 32" fill="none" xmlns="http://www.w3.org/2000/svg">
<path fill-rule="evenodd" clip-rule="evenodd" d="M16 30.6654C16 30.6654 28 22.6654 28 13.332C28 10.1494 26.7357 7.09719 24.4853 4.84675C22.2348 2.59631 19.1826 1.33203 16 1.33203C12.8174 1.33203 9.76515 2.59631 7.51472 4.84675C5.26428 7.09719 4 10.1494 4 13.332C4 22.6654 16 30.6654 16 30.6654ZM24 13C24 17.4183 20.4183 21 16 21C11.5817 21 8 17.4183 8 13C8 8.58172 11.5817 5 16 5C20.4183 5 24 8.58172 24 13Z" fill="#7654FF"/>
<path d="M16 21C20.4183 21 24 17.4183 24 13C24 8.58172 20.4183 5 16 5C11.5817 5 8 8.58172 8 13C8 17.4183 11.5817 21 16 21Z" fill="white"/>
<path d="M15.9848 17.6712C17.3608 17.6712 18.3368 16.6792 18.3368 15.2872C18.3368 13.8632 17.3608 12.8712 15.9848 12.8712C14.6248 12.8712 13.6647 13.8632 13.6647 15.2872C13.6647 16.6792 14.6248 17.6712 15.9848 17.6712ZM11.9688 15.2872C11.9688 14.4392 12.2728 13.6872 12.6087 13.0632L15.8088 7.36719H17.7608L15.4408 11.4472C15.6328 11.4152 15.8248 11.3832 16.0328 11.3832C18.3848 11.3992 20.0328 12.9992 20.0328 15.2872C20.0328 17.5592 18.3688 19.1592 16.0008 19.1592C13.6328 19.1592 11.9688 17.5592 11.9688 15.2872Z" fill="#7654FF"/>
</svg>
