<svg width="32" height="32" viewBox="0 0 32 32" fill="none" xmlns="http://www.w3.org/2000/svg">
<path fill-rule="evenodd" clip-rule="evenodd" d="M16 30.6654C16 30.6654 28 22.6654 28 13.332C28 10.1494 26.7357 7.09719 24.4853 4.84675C22.2348 2.59631 19.1826 1.33203 16 1.33203C12.8174 1.33203 9.76515 2.59631 7.51472 4.84675C5.26428 7.09719 4 10.1494 4 13.332C4 22.6654 16 30.6654 16 30.6654ZM24 13C24 17.4183 20.4183 21 16 21C11.5817 21 8 17.4183 8 13C8 8.58172 11.5817 5 16 5C20.4183 5 24 8.58172 24 13Z" fill="#7654FF"/>
<path d="M16 21C20.4183 21 24 17.4183 24 13C24 8.58172 20.4183 5 16 5C11.5817 5 8 8.58172 8 13C8 17.4183 11.5817 21 16 21Z" fill="white"/>
<path d="M15.9993 17.783C17.3273 17.783 18.2553 16.935 18.2553 15.719C18.2553 14.503 17.3273 13.639 15.9993 13.639C14.6713 13.639 13.7272 14.503 13.7272 15.719C13.7272 16.935 14.6713 17.783 15.9993 17.783ZM14.0633 10.407C14.0633 11.447 14.8633 12.183 15.9993 12.183C17.1513 12.183 17.9513 11.447 17.9513 10.407C17.9513 9.36703 17.1513 8.64703 15.9993 8.64703C14.8633 8.64703 14.0633 9.36703 14.0633 10.407ZM18.0473 12.919C19.1673 13.559 19.9673 14.727 19.9673 15.751C19.9673 17.799 18.3353 19.239 15.9993 19.239C13.6793 19.239 12.0312 17.799 12.0312 15.751C12.0312 14.727 12.8313 13.543 13.9513 12.919C13.0233 12.279 12.3513 11.239 12.3513 10.407C12.3513 8.51903 13.8553 7.20703 15.9993 7.20703C18.1433 7.20703 19.6473 8.51903 19.6473 10.407C19.6473 11.255 18.9913 12.295 18.0473 12.919Z" fill="#7654FF"/>
</svg>
