<svg width="32" height="32" viewBox="0 0 32 32" fill="none" xmlns="http://www.w3.org/2000/svg">
<path fill-rule="evenodd" clip-rule="evenodd" d="M16 30.6654C16 30.6654 28 22.6654 28 13.332C28 10.1494 26.7357 7.09719 24.4853 4.84675C22.2348 2.59631 19.1826 1.33203 16 1.33203C12.8174 1.33203 9.76515 2.59631 7.51472 4.84675C5.26428 7.09719 4 10.1494 4 13.332C4 22.6654 16 30.6654 16 30.6654ZM24 13C24 17.4183 20.4183 21 16 21C11.5817 21 8 17.4183 8 13C8 8.58172 11.5817 5 16 5C20.4183 5 24 8.58172 24 13Z" fill="#7654FF"/>
<path d="M16 21C20.4183 21 24 17.4183 24 13C24 8.58172 20.4183 5 16 5C11.5817 5 8 8.58172 8 13C8 17.4183 11.5817 21 16 21Z" fill="white"/>
<path d="M16.0168 8.76144C14.6408 8.76144 13.6647 9.75344 13.6647 11.1614C13.6647 12.5694 14.6408 13.5614 16.0168 13.5614C17.3768 13.5614 18.3368 12.5694 18.3368 11.1614C18.3368 9.75344 17.3768 8.76144 16.0168 8.76144ZM20.0328 11.1614C20.0328 11.9934 19.7288 12.7614 19.3928 13.3694L16.1928 19.0654H14.2408L16.5608 14.9854C16.3688 15.0174 16.1768 15.0494 15.9688 15.0494C13.6168 15.0334 11.9688 13.4334 11.9688 11.1614C11.9688 8.87344 13.6328 7.27344 16.0008 7.27344C18.3688 7.27344 20.0328 8.87344 20.0328 11.1614Z" fill="#7654FF"/>
</svg>
