<svg width="32" height="33" viewBox="0 0 32 33" fill="none" xmlns="http://www.w3.org/2000/svg">
<path fill-rule="evenodd" clip-rule="evenodd" d="M14.0862 6.09386C14.2467 5.73273 14.6048 5.5 15 5.5C16.0609 5.5 17.0783 5.92143 17.8284 6.67157C18.5786 7.42172 19 8.43913 19 9.5V12.5H23.6549C24.0876 12.496 24.5162 12.5857 24.911 12.7629C25.3078 12.941 25.6611 13.2032 25.9465 13.5313C26.2318 13.8595 26.4424 14.2458 26.5637 14.6634C26.6849 15.0811 26.7139 15.5201 26.6487 15.9501L25.2687 24.9499C25.2687 24.9502 25.2687 24.9497 25.2687 24.9499C25.1601 25.665 24.7966 26.3175 24.2456 26.7859C23.6958 27.2532 22.9961 27.5067 22.2748 27.5H8C7.20435 27.5 6.44129 27.1839 5.87868 26.6213C5.31607 26.0587 5 25.2957 5 24.5V17.5C5 16.7044 5.31607 15.9413 5.87868 15.3787C6.44129 14.8161 7.20435 14.5 8 14.5H10.3501L14.0862 6.09386ZM10 16.5H8C7.73478 16.5 7.48043 16.6054 7.29289 16.7929C7.10536 16.9804 7 17.2348 7 17.5V24.5C7 24.7652 7.10536 25.0196 7.29289 25.2071C7.48043 25.3946 7.73478 25.5 8 25.5H10V16.5ZM12 25.5H22.2913C22.5325 25.5027 22.7665 25.4183 22.9503 25.2621C23.134 25.1059 23.2551 24.8885 23.2913 24.6501L24.6713 15.6499C24.6713 15.6498 24.6713 15.6501 24.6713 15.6499C24.693 15.5067 24.6834 15.3601 24.643 15.2211C24.6026 15.0818 24.5324 14.9531 24.4373 14.8437C24.3421 14.7343 24.2244 14.6469 24.0921 14.5875C23.9599 14.5282 23.8163 14.4983 23.6713 14.4999L23.66 14.5001L18 14.5C17.4477 14.5 17 14.0523 17 13.5V9.5C17 8.96957 16.7893 8.46086 16.4142 8.08579C16.1864 7.85794 15.9092 7.69075 15.6078 7.5946L12 15.7122V25.5Z" fill="white"/>
</svg>
