<svg width="43" height="53" viewBox="0 0 43 53" fill="none" xmlns="http://www.w3.org/2000/svg">
<path fill-rule="evenodd" clip-rule="evenodd" d="M8.0036 5.17157C8.75375 4.42143 9.77117 4 10.832 4H20.1654C20.9017 4 21.4987 4.59695 21.4987 5.33333C21.4987 6.06971 20.9017 6.66667 20.1654 6.66667H10.832C10.4784 6.66667 10.1393 6.80714 9.88922 7.05719C9.63917 7.30724 9.4987 7.64638 9.4987 8V26.6667C9.4987 27.0203 9.63917 27.3594 9.88922 27.6095C10.1393 27.8595 10.4784 28 10.832 28H29.4987C29.8523 28 30.1915 27.8595 30.4415 27.6095C30.6916 27.3594 30.832 27.0203 30.832 26.6667V17.3333C30.832 16.597 31.429 16 32.1654 16C32.9017 16 33.4987 16.597 33.4987 17.3333V26.6667C33.4987 27.7275 33.0773 28.7449 32.3271 29.4951C31.577 30.2452 30.5596 30.6667 29.4987 30.6667H10.832C9.77116 30.6667 8.75375 30.2452 8.0036 29.4951C7.25346 28.7449 6.83203 27.7275 6.83203 26.6667V8C6.83203 6.93913 7.25346 5.92172 8.0036 5.17157Z" fill="white"/>
<path fill-rule="evenodd" clip-rule="evenodd" d="M32.1654 3.83854C31.7689 3.83854 31.3886 3.99606 31.1082 4.27644L18.7027 16.682L17.9979 19.5011L20.8171 18.7964L33.2226 6.39083C33.503 6.11044 33.6605 5.73016 33.6605 5.33364C33.6605 4.93711 33.503 4.55683 33.2226 4.27644C32.9422 3.99606 32.5619 3.83854 32.1654 3.83854ZM29.2226 2.39083C30.0031 1.61034 31.0616 1.17188 32.1654 1.17188C33.2692 1.17188 34.3277 1.61034 35.1082 2.39083C35.8887 3.17131 36.3272 4.22987 36.3272 5.33364C36.3272 6.4374 35.8887 7.49596 35.1082 8.27644L22.4415 20.9431C22.2707 21.114 22.0565 21.2352 21.8221 21.2938L16.4888 22.6272C16.0344 22.7407 15.5538 22.6076 15.2226 22.2764C14.8914 21.9453 14.7583 21.4646 14.8719 21.0103L16.2052 15.6769C16.2638 15.4425 16.385 15.2284 16.5559 15.0575L29.2226 2.39083Z" fill="white"/>
<path d="M1.25544 40.12H6.87144V40.864H4.51944V41.32C4.51944 42.736 5.56344 44.008 7.08744 44.536L6.61944 45.256C5.44344 44.836 4.53144 43.96 4.08744 42.868C3.64344 44.068 2.68344 45.004 1.45944 45.46L0.967438 44.752C2.53944 44.2 3.63144 42.844 3.63144 41.332V40.864H1.25544V40.12ZM8.23944 39.376H9.13944V42.172H10.7114V42.928H9.13944V45.688H8.23944V39.376ZM2.34744 46.276H9.13944V49.876H8.23944V47.008H2.34744V46.276ZM14.1557 39.976H15.0437V41.032C15.0437 42.532 16.1117 43.852 17.6237 44.38L17.1317 45.088C15.9797 44.656 15.0797 43.792 14.6237 42.676C14.1797 43.948 13.2197 44.92 11.9597 45.4L11.4917 44.668C13.0637 44.092 14.1557 42.7 14.1557 41.068V39.976ZM19.1957 39.376H20.0957V45.592H19.1957V42.388H16.8677V41.632H19.1957V39.376ZM16.6637 45.904C18.8237 45.904 20.1437 46.636 20.1437 47.884C20.1437 49.144 18.8237 49.852 16.6637 49.852C14.4917 49.852 13.1597 49.144 13.1597 47.884C13.1597 46.636 14.4917 45.904 16.6637 45.904ZM16.6637 46.624C15.0437 46.624 14.0717 47.092 14.0717 47.884C14.0717 48.664 15.0437 49.144 16.6637 49.144C18.2597 49.144 19.2557 48.664 19.2557 47.884C19.2557 47.092 18.2597 46.624 16.6637 46.624ZM29.144 39.376H30.044V43.72H31.784V44.476H30.044V49.876H29.144V39.376ZM21.92 41.068H24.608V39.496H25.52V41.068H28.136V41.812H21.92V41.068ZM25.076 42.712C26.552 42.712 27.62 43.696 27.62 45.112C27.62 46.528 26.552 47.512 25.076 47.512C23.612 47.512 22.532 46.528 22.532 45.112C22.532 43.696 23.612 42.712 25.076 42.712ZM25.076 43.456C24.092 43.456 23.396 44.152 23.396 45.112C23.396 46.072 24.092 46.756 25.076 46.756C26.048 46.756 26.756 46.072 26.756 45.112C26.756 44.152 26.048 43.456 25.076 43.456ZM40.1603 39.376H41.0603V49.876H40.1603V39.376ZM37.9643 40.504C37.9643 43.528 36.5723 46.192 33.0803 47.896L32.6003 47.176C35.4323 45.82 36.8603 43.768 37.0523 41.248H33.0683V40.504H37.9643Z" fill="white"/>
</svg>
